<svg width="345" height="141" viewBox="0 0 345 141" fill="none" xmlns="http://www.w3.org/2000/svg">
<g clip-path="url(#clip0_236_6)">
<path opacity="0.0714286" d="M-112.74 917.288C-89.6239 848.407 30.9963 696.942 328.547 642.135C700.486 573.626 617.799 386.649 546.797 327.304C365.252 175.566 13.5692 237.807 -75.6611 -104.326" stroke="url(#paint0_linear_236_6)" stroke-width="0.0502231" stroke-linecap="round"/>
<path opacity="0.142857" d="M-118.924 891.917C-95.5014 824.288 23.4838 676.451 312.041 626.133C672.737 563.236 595.695 377.839 527.966 318.436C354.79 166.549 13.7776 223.519 -67.1761 -114.945" stroke="url(#paint1_linear_236_6)" stroke-width="0.100446" stroke-linecap="round"/>
<path opacity="0.214286" d="M-122.929 868.23C-99.5063 801.75 17.1643 656.976 296.467 609.715C645.596 550.64 573.373 367.245 508.658 308.134C343.186 156.993 13.1395 210.386 -61.0533 -123.938" stroke="url(#paint2_linear_236_6)" stroke-width="0.150669" stroke-linecap="round"/>
<path opacity="0.285714" d="M-124.333 846.552C-101.282 781.09 12.2646 638.707 282.041 592.867C619.261 535.567 550.841 354.617 488.812 296.184C330.211 146.776 11.4377 198.525 -57.8508 -131.189" stroke="url(#paint3_linear_236_6)" stroke-width="0.200892" stroke-linecap="round"/>
<path opacity="0.357143" d="M-123.006 826.925C-100.717 762.342 8.85623 621.665 268.831 575.615C593.8 518.052 528.103 339.964 468.412 282.585C315.79 135.873 8.60099 187.906 -57.7502 -136.773" stroke="url(#paint4_linear_236_6)" stroke-width="0.251115" stroke-linecap="round"/>
<path opacity="0.428571" d="M-119.101 809.098C-97.9403 745.273 6.85612 605.702 256.758 558.013C569.136 498.403 505.153 323.539 447.478 267.543C300.008 124.366 4.71181 178.369 -60.5413 -140.91" stroke="url(#paint5_linear_236_6)" stroke-width="0.301338" stroke-linecap="round"/>
<path opacity="0.5" d="M-113.039 792.588C-93.3115 729.433 6.03614 590.528 245.606 540.14C545.069 477.154 481.985 305.795 426.07 251.43C283.098 112.423 -0.0124439 169.652 -65.6644 -143.932" stroke="url(#paint6_linear_236_6)" stroke-width="0.351562" stroke-linecap="round"/>
<path opacity="0.571429" d="M-105.473 776.762C-87.3861 714.238 6.04254 575.768 235.061 522.087C521.333 454.986 458.614 287.312 404.296 234.724C265.411 100.263 -5.25931 161.419 -72.3003 -146.266" stroke="url(#paint7_linear_236_6)" stroke-width="0.401785" stroke-linecap="round"/>
<path opacity="0.642857" d="M-97.2269 760.963C-80.8691 699.073 6.42637 561.028 224.746 503.97C497.645 432.646 435.089 268.718 382.318 217.942C247.386 88.1132 -10.6746 153.297 -79.4907 -148.397" stroke="url(#paint8_linear_236_6)" stroke-width="0.452008" stroke-linecap="round"/>
<path opacity="0.714286" d="M-89.2057 744.605C-74.5387 683.394 6.69164 545.959 214.278 485.913C473.761 410.855 411.505 250.606 360.335 201.563C229.496 76.1653 -15.9124 144.916 -86.2651 -150.831" stroke="url(#paint9_linear_236_6)" stroke-width="0.502231" stroke-linecap="round"/>
<path opacity="0.785714" d="M-82.2876 727.259C-69.1526 666.794 6.35559 530.298 203.308 468.04C449.499 390.218 387.99 233.455 338.566 185.969C212.193 64.5505 -20.6751 135.951 -91.7551 -154.04" stroke="url(#paint10_linear_236_6)" stroke-width="0.552454" stroke-linecap="round"/>
<path opacity="0.857143" d="M-77.2106 708.681C-65.3492 649.039 5.01111 513.896 191.561 450.457C424.749 371.159 364.674 217.588 317.211 171.41C195.851 53.3347 -24.7405 126.166 -95.2837 -158.391" stroke="url(#paint11_linear_236_6)" stroke-width="0.602677" stroke-linecap="round"/>
<path opacity="0.928571" d="M-74.4736 688.803C-63.5615 630.062 2.38211 496.707 178.86 433.223C399.458 353.868 341.66 203.138 296.413 157.982C180.72 42.5242 -27.9733 115.445 -96.4218 -164.085" stroke="url(#paint12_linear_236_6)" stroke-width="0.6529" stroke-linecap="round"/>
<path d="M-74.2734 667.71C-63.9609 609.937 -1.64075 478.781 165.14 416.343C373.616 338.297 318.994 190.052 276.233 145.641C166.898 32.0866 -30.3282 103.805 -95.0155 -171.116" stroke="url(#paint13_linear_236_6)" stroke-width="0.703123" stroke-linecap="round"/>
</g>
<defs>
<linearGradient id="paint0_linear_236_6" x1="645.018" y1="-52.4104" x2="-75.0732" y2="-111.491" gradientUnits="userSpaceOnUse">
<stop stop-color="#4ABBC9"/>
<stop offset="1" stop-color="#A5FEA8"/>
</linearGradient>
<linearGradient id="paint1_linear_236_6" x1="628.845" y1="-54.7386" x2="-66.5226" y2="-121.729" gradientUnits="userSpaceOnUse">
<stop stop-color="#4ABBC9"/>
<stop offset="1" stop-color="#A5FEA8"/>
</linearGradient>
<linearGradient id="paint2_linear_236_6" x1="610.501" y1="-58.9305" x2="-60.3709" y2="-130.348" gradientUnits="userSpaceOnUse">
<stop stop-color="#4ABBC9"/>
<stop offset="1" stop-color="#A5FEA8"/>
</linearGradient>
<linearGradient id="paint3_linear_236_6" x1="589.576" y1="-65.3344" x2="-57.1787" y2="-137.236" gradientUnits="userSpaceOnUse">
<stop stop-color="#4ABBC9"/>
<stop offset="1" stop-color="#A5FEA8"/>
</linearGradient>
<linearGradient id="paint4_linear_236_6" x1="565.939" y1="-73.989" x2="-57.1246" y2="-142.466" gradientUnits="userSpaceOnUse">
<stop stop-color="#4ABBC9"/>
<stop offset="1" stop-color="#A5FEA8"/>
</linearGradient>
<linearGradient id="paint5_linear_236_6" x1="539.74" y1="-84.6207" x2="-59.9916" y2="-146.258" gradientUnits="userSpaceOnUse">
<stop stop-color="#4ABBC9"/>
<stop offset="1" stop-color="#A5FEA8"/>
</linearGradient>
<linearGradient id="paint6_linear_236_6" x1="511.395" y1="-96.6987" x2="-65.2103" y2="-148.944" gradientUnits="userSpaceOnUse">
<stop stop-color="#4ABBC9"/>
<stop offset="1" stop-color="#A5FEA8"/>
</linearGradient>
<linearGradient id="paint7_linear_236_6" x1="481.546" y1="-109.537" x2="-71.95" y2="-150.949" gradientUnits="userSpaceOnUse">
<stop stop-color="#4ABBC9"/>
<stop offset="1" stop-color="#A5FEA8"/>
</linearGradient>
<linearGradient id="paint8_linear_236_6" x1="451.01" y1="-122.413" x2="-79.2413" y2="-152.755" gradientUnits="userSpaceOnUse">
<stop stop-color="#4ABBC9"/>
<stop offset="1" stop-color="#A5FEA8"/>
</linearGradient>
<linearGradient id="paint9_linear_236_6" x1="420.688" y1="-134.684" x2="-86.1042" y2="-154.871" gradientUnits="userSpaceOnUse">
<stop stop-color="#4ABBC9"/>
<stop offset="1" stop-color="#A5FEA8"/>
</linearGradient>
<linearGradient id="paint10_linear_236_6" x1="391.46" y1="-145.872" x2="-91.6633" y2="-157.769" gradientUnits="userSpaceOnUse">
<stop stop-color="#4ABBC9"/>
<stop offset="1" stop-color="#A5FEA8"/>
</linearGradient>
<linearGradient id="paint11_linear_236_6" x1="364.066" y1="-155.699" x2="-95.2381" y2="-161.815" gradientUnits="userSpaceOnUse">
<stop stop-color="#4ABBC9"/>
<stop offset="1" stop-color="#A5FEA8"/>
</linearGradient>
<linearGradient id="paint12_linear_236_6" x1="339.01" y1="-164.085" x2="-96.3993" y2="-167.213" gradientUnits="userSpaceOnUse">
<stop stop-color="#4ABBC9"/>
<stop offset="1" stop-color="#A5FEA8"/>
</linearGradient>
<linearGradient id="paint13_linear_236_6" x1="316.49" y1="-171.116" x2="-94.9959" y2="-173.956" gradientUnits="userSpaceOnUse">
<stop stop-color="#4ABBC9"/>
<stop offset="1" stop-color="#A5FEA8"/>
</linearGradient>
<clipPath id="clip0_236_6">
<path d="M0 0H288.75C319.816 0 345 25.1839 345 56.2499V84.7502C345 115.816 319.816 141 288.75 141H0V0Z" fill="white"/>
</clipPath>
</defs>
</svg>
