<svg width="30" height="30" viewBox="0 0 30 30" fill="none" xmlns="http://www.w3.org/2000/svg">
<path d="M6.42857 8H13.5714C13.9503 8 14.3137 8.1475 14.5816 8.41005C14.8495 8.6726 15 9.0287 15 9.4C15 9.7713 14.8495 10.1274 14.5816 10.3899C14.3137 10.6525 13.9503 10.8 13.5714 10.8H6.42857C6.04969 10.8 5.68633 10.6525 5.41842 10.3899C5.15051 10.1274 5 9.7713 5 9.4C5 9.0287 5.15051 8.6726 5.41842 8.41005C5.68633 8.1475 6.04969 8 6.42857 8ZM16.4286 19.2H23.5714C23.9503 19.2 24.3137 19.3475 24.5816 19.6101C24.8495 19.8726 25 20.2287 25 20.6C25 20.9713 24.8495 21.3274 24.5816 21.5899C24.3137 21.8525 23.9503 22 23.5714 22H16.4286C16.0497 22 15.6863 21.8525 15.4184 21.5899C15.1505 21.3274 15 20.9713 15 20.6C15 20.2287 15.1505 19.8726 15.4184 19.6101C15.6863 19.3475 16.0497 19.2 16.4286 19.2ZM6.42857 13.6H23.5714C23.9503 13.6 24.3137 13.7475 24.5816 14.0101C24.8495 14.2726 25 14.6287 25 15C25 15.3713 24.8495 15.7274 24.5816 15.9899C24.3137 16.2525 23.9503 16.4 23.5714 16.4H6.42857C6.04969 16.4 5.68633 16.2525 5.41842 15.9899C5.15051 15.7274 5 15.3713 5 15C5 14.6287 5.15051 14.2726 5.41842 14.0101C5.68633 13.7475 6.04969 13.6 6.42857 13.6Z" fill="#0C2617"/>
</svg>
