<svg width="50" height="50" viewBox="0 0 50 50" fill="none" xmlns="http://www.w3.org/2000/svg">
<g clip-path="url(#clip0_1_8)">
<path d="M27.4559 45.2815C27.8184 45.8548 27.9823 46.5344 27.9217 47.2129C27.8612 47.8914 27.5797 48.53 27.1217 49.0279C26.6637 49.5258 26.0553 49.8546 25.3927 49.9623C24.73 50.07 24.051 49.9504 23.4628 49.6225C22.8745 49.2946 22.4107 48.777 22.1446 48.1516C21.8785 47.5263 21.8253 46.8287 21.9933 46.1691C22.1614 45.5096 22.5411 44.9257 23.0726 44.5097C23.604 44.0938 24.2568 43.8694 24.9279 43.8722C25.4319 43.8727 25.9277 44.0021 26.3696 44.2484C26.8114 44.4947 27.185 44.85 27.4559 45.2815Z" fill="#4ABBC9"/>
<path d="M20.5318 42.7217C20.3416 36.6746 21.4179 31.3922 24.9914 27.6119C28.0785 31.1163 29.5863 36.1063 29.3298 42.7569C29.1031 42.3985 28.8052 42.0919 28.4553 41.8568C28.1053 41.6218 27.7109 41.4633 27.2972 41.3917C26.8836 41.32 26.4597 41.3367 26.0528 41.4407C25.6458 41.5447 25.2647 41.7336 24.9337 41.9955C24.6049 41.7309 24.2253 41.5388 23.8192 41.4315C23.4131 41.3242 22.9894 41.304 22.5752 41.3722C22.161 41.4404 21.7654 41.5956 21.4135 41.8277C21.0617 42.0599 20.7614 42.364 20.5318 42.7205V42.7217Z" fill="#4ABBC9"/>
<path d="M8.92585 37.2988C8.6178 37.9039 8.11991 38.3876 7.51084 38.6734C6.90177 38.9593 6.21626 39.0309 5.56261 38.8771C4.90895 38.7232 4.32443 38.3526 3.90138 37.8239C3.47834 37.2952 3.2409 36.6384 3.22658 35.9574C3.21226 35.2763 3.42187 34.6099 3.82229 34.0633C4.22272 33.5167 4.79113 33.1211 5.43772 32.9391C6.08431 32.757 6.77221 32.7989 7.39274 33.0581C8.01327 33.3173 8.53105 33.7789 8.86426 34.3702C9.11602 34.8138 9.25364 35.3146 9.2644 35.8265C9.27517 36.3383 9.15873 36.8447 8.92585 37.2988Z" fill="#4ABBC9"/>
<path d="M7.64801 29.9326C12.7111 26.7421 17.7562 25.0467 22.7667 26.2992C21.3208 30.7653 17.8159 34.5863 12.016 37.6858C12.2085 37.3073 12.3212 36.8921 12.3467 36.4669C12.3723 36.0417 12.3103 35.6157 12.1646 35.2162C12.0189 34.8166 11.7927 34.4524 11.5005 34.1466C11.2083 33.8408 10.8566 33.6002 10.4676 33.4402C10.529 33.0187 10.5031 32.5889 10.3916 32.1782C10.2801 31.7675 10.0855 31.3849 9.82015 31.0548C9.55482 30.7248 9.22461 30.4545 8.85061 30.2613C8.4766 30.0681 8.06702 29.9561 7.64801 29.9326Z" fill="#4ABBC9"/>
<path d="M6.47151 17.0173C5.80124 17.049 5.13969 16.853 4.59137 16.4604C4.04306 16.0677 3.63925 15.5008 3.44374 14.8492C3.24824 14.1976 3.27218 13.4984 3.51179 12.8621C3.7514 12.2258 4.19301 11.6887 4.76686 11.3357C5.3407 10.9826 6.01406 10.8338 6.68055 10.9126C7.34703 10.9915 7.96864 11.2935 8.44716 11.771C8.92568 12.2485 9.23383 12.8743 9.32292 13.5495C9.41201 14.2246 9.27696 14.9107 8.93911 15.4992C8.68628 15.9421 8.32774 16.3133 7.89651 16.5786C7.46529 16.8439 6.97524 16.9948 6.47151 17.0173Z" fill="#4ABBC9"/>
<path d="M12.1162 12.2109C17.3695 15.0667 21.3384 18.6546 22.7753 23.6861C18.2424 24.6478 13.2311 23.4788 7.68622 19.9265C8.10509 19.9062 8.51521 19.7975 8.89041 19.6074C9.26561 19.4172 9.59766 19.1498 9.8654 18.8221C10.1331 18.4945 10.3307 18.1138 10.4455 17.7043C10.5602 17.2948 10.5897 16.8656 10.532 16.4439C10.9223 16.2872 11.2761 16.0496 11.5709 15.7463C11.8657 15.443 12.0949 15.0806 12.244 14.6822C12.3931 14.2839 12.4587 13.8584 12.4367 13.4329C12.4147 13.0074 12.3056 12.5912 12.1162 12.2109Z" fill="#4ABBC9"/>
<path d="M22.5441 4.71852C22.1817 4.14517 22.0178 3.46557 22.0783 2.78709C22.1388 2.10862 22.4203 1.46997 22.8783 0.972064C23.3364 0.47416 23.9447 0.145396 24.6074 0.0377252C25.27 -0.0699457 25.949 0.0496169 26.5373 0.377518C27.1255 0.70542 27.5893 1.22296 27.8554 1.84836C28.1215 2.47376 28.1747 3.17134 28.0067 3.83089C27.8386 4.49043 27.4589 5.07432 26.9274 5.49028C26.396 5.90625 25.7432 6.13056 25.0721 6.12779C24.5681 6.12726 24.0723 5.99788 23.6305 5.75158C23.1886 5.50529 22.815 5.15001 22.5441 4.71852Z" fill="#4ABBC9"/>
<path d="M29.4682 7.27829C29.6584 13.3254 28.5821 18.6079 25.0086 22.3881C21.9204 18.8825 20.4133 13.8925 20.6702 7.24188C20.8969 7.60037 21.1948 7.90693 21.5447 8.142C21.8947 8.37707 22.2891 8.53548 22.7028 8.60713C23.1164 8.67878 23.5403 8.66209 23.9472 8.55812C24.3542 8.45415 24.7353 8.2652 25.0663 8.00331C25.3951 8.26791 25.7747 8.45999 26.1808 8.56731C26.5869 8.67463 27.0106 8.69482 27.4248 8.6266C27.839 8.55838 28.2346 8.40324 28.5865 8.17109C28.9383 7.93894 29.2386 7.63487 29.4682 7.27829Z" fill="#4ABBC9"/>
<path d="M41.0742 12.7012C41.3822 12.0961 41.8801 11.6124 42.4892 11.3266C43.0982 11.0407 43.7838 10.9691 44.4374 11.1229C45.0911 11.2768 45.6756 11.6474 46.0986 12.1761C46.5217 12.7048 46.7591 13.3616 46.7734 14.0427C46.7878 14.7237 46.5782 15.3901 46.1777 15.9367C45.7773 16.4833 45.2089 16.8789 44.5623 17.0609C43.9157 17.243 43.2278 17.2011 42.6073 16.9419C41.9867 16.6827 41.469 16.2211 41.1358 15.6298C40.884 15.1862 40.7464 14.6854 40.7356 14.1735C40.7248 13.6617 40.8413 13.1553 41.0742 12.7012Z" fill="#4ABBC9"/>
<path d="M42.352 20.0674C37.2889 23.2579 32.2438 24.9533 27.2333 23.7008C28.6792 19.2347 32.1841 15.4137 37.984 12.3142C37.7915 12.6928 37.6788 13.1079 37.6533 13.5331C37.6277 13.9584 37.6897 14.3843 37.8354 14.7838C37.9811 15.1834 38.2073 15.5476 38.4995 15.8534C38.7917 16.1592 39.1434 16.3998 39.5324 16.5598C39.471 16.9813 39.4969 17.4111 39.6084 17.8218C39.7199 18.2325 39.9145 18.6151 40.1798 18.9452C40.4452 19.2752 40.7754 19.5455 41.1494 19.7387C41.5234 19.932 41.933 20.0439 42.352 20.0674Z" fill="#4ABBC9"/>
<path d="M43.5285 32.9827C44.1987 32.9508 44.8603 33.1465 45.4087 33.539C45.957 33.9314 46.361 34.4982 46.5566 35.1497C46.7523 35.8012 46.7285 36.5004 46.4891 37.1366C46.2497 37.7729 45.8082 38.3101 45.2345 38.6632C44.6608 39.0163 43.9875 39.1653 43.321 39.0866C42.6546 39.0079 42.033 38.706 41.5544 38.2286C41.0759 37.7512 40.7677 37.1255 40.6785 36.4504C40.5893 35.7753 40.7243 35.0893 41.0621 34.5008C41.3148 34.058 41.6732 33.687 42.1042 33.4217C42.5352 33.1564 43.025 33.0054 43.5285 32.9827Z" fill="#4ABBC9"/>
<path d="M37.8838 37.7891C32.6305 34.9334 28.6616 31.3455 27.2247 26.3123C31.7576 25.3506 36.7685 26.5197 42.3138 30.0719C41.8947 30.092 41.4844 30.2005 41.109 30.3905C40.7335 30.5805 40.4013 30.8479 40.1333 31.1756C39.8654 31.5033 39.6676 31.8841 39.5528 32.2937C39.4379 32.7033 39.4084 33.1327 39.4661 33.5546C39.0757 33.7113 38.7218 33.9491 38.427 34.2526C38.1322 34.5561 37.903 34.9187 37.7541 35.3172C37.6052 35.7157 37.5398 36.1414 37.5621 36.567C37.5845 36.9927 37.694 37.4089 37.8838 37.7891Z" fill="#4ABBC9"/>
</g>
<defs>
<clipPath id="clip0_1_8">
<rect width="50" height="50" fill="white"/>
</clipPath>
</defs>
</svg>
