<svg width="36" height="36" fill="currentColor" xmlns="http://www.w3.org/2000/svg"><path d="M33.54 0H2.46A2.464 2.464 0 0 0 0 2.461v22.87a2.464 2.464 0 0 0 2.46 2.46h9.652a.35.35 0 0 1 .314.193l3.379 6.668c.91 1.797 3.48 1.797 4.39 0l3.38-6.668a.35.35 0 0 1 .313-.193h9.651A2.464 2.464 0 0 0 36 25.331V2.46a2.464 2.464 0 0 0-2.46-2.46Zm.35 25.33a.352.352 0 0 1-.35.352h-9.652a2.45 2.45 0 0 0-2.195 1.348l-3.38 6.669a.35.35 0 0 1-.627 0l-3.379-6.669a2.45 2.45 0 0 0-2.195-1.348H2.46a.352.352 0 0 1-.352-.352V2.461c0-.193.158-.351.352-.351h31.078c.194 0 .352.158.352.351v22.87Z"/><path d="M15.832 16.164a1.055 1.055 0 0 0-1.486.13c-.483.578-1.139.834-1.892.834a3.236 3.236 0 0 1-3.232-3.232 3.236 3.236 0 0 1 5.038-2.681 1.055 1.055 0 1 0 1.181-1.748 5.316 5.316 0 0 0-2.987-.913 5.348 5.348 0 0 0-5.341 5.342 5.348 5.348 0 0 0 5.341 5.341c1.372 0 2.62-.528 3.509-1.587a1.055 1.055 0 0 0-.13-1.486Zm12.678 0a1.055 1.055 0 0 0-1.485.13c-.486.58-1.143.834-1.893.834a3.236 3.236 0 0 1-3.232-3.232 3.236 3.236 0 0 1 5.038-2.68 1.055 1.055 0 1 0 1.181-1.749 5.316 5.316 0 0 0-2.987-.913 5.347 5.347 0 0 0-5.341 5.342 5.348 5.348 0 0 0 5.341 5.341c1.372 0 2.62-.527 3.509-1.587a1.055 1.055 0 0 0-.13-1.485Z"/></svg>