<svg width="36" height="36" fill="currentColor" xmlns="http://www.w3.org/2000/svg"><path d="M9 33.75a1.126 1.126 0 0 1-1.125-1.125V27H4.5a3.38 3.38 0 0 1-3.375-3.375v-18A3.38 3.38 0 0 1 4.5 2.25h27a3.38 3.38 0 0 1 3.375 3.375v18A3.38 3.38 0 0 1 31.5 27H17.832l-8.129 6.504c-.2.16-.447.246-.703.246ZM4.5 4.5c-.621 0-1.125.505-1.125 1.125v18c0 .62.504 1.125 1.125 1.125H9a1.125 1.125 0 0 1 1.125 1.125v4.41l6.61-5.289c.199-.16.447-.246.703-.246H31.5c.621 0 1.125-.505 1.125-1.125v-18c0-.62-.504-1.125-1.125-1.125h-27Z"/><path d="M27 13.5H9a1.125 1.125 0 1 1 0-2.25h18a1.125 1.125 0 1 1 0 2.25ZM18 18H9a1.125 1.125 0 1 1 0-2.25h9A1.125 1.125 0 1 1 18 18Z"/></svg>