<svg width="36" height="36" viewBox="0 0 36 36" fill="none" xmlns="http://www.w3.org/2000/svg">
  <g clip-path="url(#clip0_140_1203)">
    <mask id="mask0_140_1203" style="mask-type:luminance" maskUnits="userSpaceOnUse" x="0" y="0" width="36" height="36">
      <path d="M35.2499 35.25V0.750107H0.75V35.25H35.2499Z" fill="currentColor" stroke="currentColor" stroke-width="1.5"/>
    </mask>
    <g mask="url(#mask0_140_1203)">
      <path d="M9.35156 26.0151L12.3612 18.1129C12.4227 17.9626 12.6356 17.9623 12.6974 18.1126L15.6797 26.0151" stroke="currentColor" stroke-width="1.5" stroke-miterlimit="10" stroke-linecap="round" stroke-linejoin="round"/>
      <path d="M10.2903 24.0471H14.7563" stroke="currentColor" stroke-width="1.5" stroke-miterlimit="10" stroke-linecap="round" stroke-linejoin="round"/>
      <path d="M18.7734 6.85559H28.1953" stroke="currentColor" stroke-width="1.5" stroke-miterlimit="10" stroke-linecap="round" stroke-linejoin="round"/>
      <path d="M25.1808 6.85549V7.53647C25.1808 11.0844 22.5399 14.0776 19.0195 14.5195" stroke="currentColor" stroke-width="1.5" stroke-miterlimit="10" stroke-linecap="round" stroke-linejoin="round"/>
      <path d="M21.7878 6.85549V7.53647C21.7878 11.0844 24.4288 14.0776 27.9491 14.5195" stroke="currentColor" stroke-width="1.5" stroke-miterlimit="10" stroke-linecap="round" stroke-linejoin="round"/>
      <path d="M23.4844 6.85559V4.32435" stroke="currentColor" stroke-width="1.5" stroke-miterlimit="10" stroke-linecap="round" stroke-linejoin="round"/>
      <path d="M20.3203 0.70319H14.698C13.0267 0.70319 11.6719 2.05804 11.6719 3.72936V15.1145C11.6719 16.7858 13.0267 18.1406 14.698 18.1406H27L32.2706 22.6406V18.1406C33.942 18.1406 35.2968 16.7858 35.2968 15.1145V3.72936C35.2968 2.05804 33.942 0.70319 32.2706 0.70319H26.6484" stroke="currentColor" stroke-width="1.5" stroke-miterlimit="10" stroke-linecap="round" stroke-linejoin="round"/>
      <path d="M24.3281 18.1407V27.7707C24.3281 29.442 22.9732 30.7969 21.3019 30.7969H8.99998L3.7293 35.2969V30.7969C2.05797 30.7969 0.703125 29.442 0.703125 27.7707V16.3856C0.703125 14.7143 2.05797 13.3594 3.7293 13.3594H11.6718" stroke="currentColor" stroke-width="1.5" stroke-miterlimit="10" stroke-linecap="round" stroke-linejoin="round"/>
    </g>
  </g>
  <defs>
    <clipPath id="clip0_140_1203">
      <rect width="36" height="36" fill="currentColor"/>
    </clipPath>
  </defs>
</svg>